<svg xmlns="http://www.w3.org/2000/svg" viewBox="-70 -70 140 140" width="512" height="512">
  <title>owo — sete búzios</title>
  <rect x="-70" y="-70" width="140" height="140" rx="28" ry="28" fill="#ad4f32"/>
  <g>
    <g transform="rotate(0) translate(0 -44)"><ellipse rx="7.5" ry="11.5" fill="#ffffff"/><path d="M 0 -7.5 Q -1.5 -5.5 -1 -3.5 Q -2 -1.5 -1 0.5 Q -2 2.5 -1 4.5 Q -1.5 6 0 7.5 Q 1.5 6 1 4.5 Q 2 2.5 1 0.5 Q 2 -1.5 1 -3.5 Q 1.5 -5.5 0 -7.5 Z" fill="#ad4f32"/></g>
    <g transform="rotate(51.43) translate(0 -44)"><ellipse rx="7.5" ry="11.5" fill="#ffffff"/><path d="M 0 -7.5 Q -1.5 -5.5 -1 -3.5 Q -2 -1.5 -1 0.5 Q -2 2.5 -1 4.5 Q -1.5 6 0 7.5 Q 1.5 6 1 4.5 Q 2 2.5 1 0.5 Q 2 -1.5 1 -3.5 Q 1.5 -5.5 0 -7.5 Z" fill="#ad4f32"/></g>
    <g transform="rotate(102.86) translate(0 -44)"><ellipse rx="7.5" ry="11.5" fill="#ffffff"/><path d="M 0 -7.5 Q -1.5 -5.5 -1 -3.5 Q -2 -1.5 -1 0.5 Q -2 2.5 -1 4.5 Q -1.5 6 0 7.5 Q 1.5 6 1 4.5 Q 2 2.5 1 0.5 Q 2 -1.5 1 -3.5 Q 1.5 -5.5 0 -7.5 Z" fill="#ad4f32"/></g>
    <g transform="rotate(154.29) translate(0 -44)"><ellipse rx="7.5" ry="11.5" fill="#ffffff"/><path d="M 0 -7.5 Q -1.5 -5.5 -1 -3.5 Q -2 -1.5 -1 0.5 Q -2 2.5 -1 4.5 Q -1.5 6 0 7.5 Q 1.5 6 1 4.5 Q 2 2.5 1 0.5 Q 2 -1.5 1 -3.5 Q 1.5 -5.5 0 -7.5 Z" fill="#ad4f32"/></g>
    <g transform="rotate(205.71) translate(0 -44)"><ellipse rx="7.5" ry="11.5" fill="#ffffff"/><path d="M 0 -7.5 Q -1.5 -5.5 -1 -3.5 Q -2 -1.5 -1 0.5 Q -2 2.5 -1 4.5 Q -1.5 6 0 7.5 Q 1.5 6 1 4.5 Q 2 2.5 1 0.5 Q 2 -1.5 1 -3.5 Q 1.5 -5.5 0 -7.5 Z" fill="#ad4f32"/></g>
    <g transform="rotate(257.14) translate(0 -44)"><ellipse rx="7.5" ry="11.5" fill="#ffffff"/><path d="M 0 -7.5 Q -1.5 -5.5 -1 -3.5 Q -2 -1.5 -1 0.5 Q -2 2.5 -1 4.5 Q -1.5 6 0 7.5 Q 1.5 6 1 4.5 Q 2 2.5 1 0.5 Q 2 -1.5 1 -3.5 Q 1.5 -5.5 0 -7.5 Z" fill="#ad4f32"/></g>
    <g transform="rotate(308.57) translate(0 -44)"><ellipse rx="7.5" ry="11.5" fill="#ffffff"/><path d="M 0 -7.5 Q -1.5 -5.5 -1 -3.5 Q -2 -1.5 -1 0.5 Q -2 2.5 -1 4.5 Q -1.5 6 0 7.5 Q 1.5 6 1 4.5 Q 2 2.5 1 0.5 Q 2 -1.5 1 -3.5 Q 1.5 -5.5 0 -7.5 Z" fill="#ad4f32"/></g>
  </g>
</svg>
